<svg width="115" height="34" viewBox="0 0 115 34" fill="none" xmlns="http://www.w3.org/2000/svg">
<path d="M0 13.7V16.3H2.5V13.7H0Z" fill="#756157"/>
<path d="M11.6 5.29999C10 5.29999 8.8 5.99999 8 6.99999H7.9V0.799988H5.9V16.3H7.9V11C7.9 8.89999 9.2 7.39999 11.2 7.39999C13 7.39999 14.1 8.79999 14.1 10.6V16.3H16.1V10.2C16.2 7.19999 14.3 5.29999 11.6 5.29999Z" fill="#756157"/>
<path d="M26.6 5.59999H21.8V1.89999H19.8V5.69999H17.9V7.69999H19.8V13.7C19.8 15.4 20.8 16.4 22.5 16.4H26.6V14.4H22.9C22.2 14.4 21.8 14 21.8 13.3V7.59999H26.6V5.59999Z" fill="#756157"/>
<path d="M41.1 5.39999C39.5 5.39999 38.2 6.19999 37.6 7.49999H37.5C36.9 6.29999 35.7 5.39999 34.1 5.39999C32.7 5.39999 31.6 6.19999 31 7.19999H30.9V5.59999H29V16.2H31V10.8C31 8.79999 32 7.29999 33.6 7.29999C35.1 7.29999 36 8.29999 36 9.89999V16.2H38V10.6C38 8.19999 39.4 7.29999 40.6 7.29999C42.1 7.29999 43 8.29999 43 9.89999V16.2H45V9.69999C45.1 7.19999 43.6 5.39999 41.1 5.39999Z" fill="#756157"/>
<path d="M47.8 13.5C47.8 15.2 48.8 16.2 50.6 16.2H52.6V14.2H50.9C50.2 14.2 49.8 13.8 49.8 13.1V0.799988H47.8V13.5Z" fill="#756157"/>
<path d="M28.9 20.5C28 19.4 26.7 18.7 25 18.7C21.9 18.7 19.6 21 19.6 24.3C19.6 27.6 21.9 29.9 25 29.9C26.8 29.9 28 29.1 28.8 28H28.9V29.6H30.9V19H28.9V20.5ZM25.3 27.9C23.1 27.9 21.7 26.3 21.7 24.3C21.7 22.3 23.1 20.7 25.3 20.7C27.5 20.7 28.9 22.3 28.9 24.3C28.9 26.2 27.5 27.9 25.3 27.9Z" fill="#756157"/>
<path d="M44.2 22.8C43.7 20.4 41.6 18.7 38.8 18.7C35.4 18.7 33.2 21.2 33.2 24.3C33.2 27.4 35.4 29.9 38.8 29.9C41.6 29.9 43.7 28.1 44.2 25.7H42.1C41.7 27 40.4 28 38.8 28C36.6 28 35.2 26.4 35.2 24.4C35.2 22.4 36.6 20.8 38.8 20.8C40.4 20.8 41.6 21.8 42.1 23H44.2V22.8Z" fill="#756157"/>
<path d="M55.1 20.5C54.2 19.4 52.9 18.7 51.2 18.7C48.1 18.7 45.8 21 45.8 24.3C45.8 27.6 48.1 29.9 51.2 29.9C53 29.9 54.2 29.1 55 28H55.1V29.6H57.1V19H55.1V20.5ZM51.5 27.9C49.3 27.9 47.9 26.3 47.9 24.3C47.9 22.3 49.3 20.7 51.5 20.7C53.7 20.7 55.1 22.3 55.1 24.3C55.1 26.2 53.6 27.9 51.5 27.9Z" fill="#756157"/>
<path d="M68.7 20.6C67.8 19.5 66.5 18.7 64.8 18.7C61.7 18.7 59.4 21 59.4 24.3C59.4 27.6 61.6 29.9 64.8 29.9C66.5 29.9 67.8 29.1 68.6 28.1H68.7V29.6H70.7V14.2H68.7V20.6ZM65.1 27.9C62.9 27.9 61.5 26.3 61.5 24.3C61.5 22.3 62.9 20.7 65.1 20.7C67.3 20.7 68.7 22.3 68.7 24.3C68.6 26.3 67.2 27.9 65.1 27.9Z" fill="#756157"/>
<path d="M78.3 18.7C75 18.7 72.8 21.2 72.8 24.3C72.8 27.3 74.9 29.9 78.3 29.9C80.8 29.9 82.8 28.6 83.5 26.3H81.4C80.9 27.3 79.8 27.9 78.4 27.9C76.5 27.9 75.1 26.6 75 25H83.8C84 21.4 81.8 18.7 78.3 18.7ZM78.3 20.6C80 20.6 81.3 21.6 81.6 23.2H75.1C75.4 21.7 76.6 20.6 78.3 20.6Z" fill="#756157"/>
<path d="M98.2 18.7C96.6 18.7 95.3 19.5 94.6 20.7H94.5C93.9 19.5 92.7 18.7 91.1 18.7C89.7 18.7 88.6 19.4 88 20.5V19H86.1V29.6H88.1V24.2C88.1 22.2 89.1 20.8 90.7 20.7C92.2 20.7 93.1 21.7 93.1 23.3V29.6H95.1V24C95.1 21.6 96.5 20.7 97.7 20.7C99.2 20.7 100.1 21.7 100.1 23.3V29.6H102.1V23.1C102.2 20.5 100.7 18.7 98.2 18.7Z" fill="#756157"/>
<path d="M109.4 27.8L105.8 18.9H103.6L108.4 30.5C108.1 31.4 107.7 31.7 106.7 31.7H104.2V33.7H106.7C108.5 33.7 109.5 32.9 110.2 31.1L114.9 18.9H112.8L109.4 27.8Z" fill="#756157"/>
</svg>
